<?xml version="1.0" standalone="no"?>
<svg version="1.0" xmlns="http://www.w3.org/2000/svg"
 width="800.000000pt" height="800.000000pt" viewBox="0 0 800.000000 800.000000"
 preserveAspectRatio="xMidYMid meet">
<metadata>
Created by potrace 1.16, written by Peter Selinger 2001-2019
</metadata>
<g transform="translate(0.000000,800.000000) scale(0.100000,-0.100000)"
fill="#000000" stroke="none">
<path d="M3680 7994 c-19 -2 -80 -9 -135 -15 -967 -103 -1904 -591 -2549
-1329 -541 -618 -862 -1332 -973 -2160 -23 -171 -26 -772 -5 -940 100 -792
383 -1467 870 -2075 124 -154 433 -463 587 -587 633 -507 1369 -805 2170 -878
142 -13 568 -13 710 0 801 73 1536 370 2170 878 154 123 464 433 587 587 488
609 770 1283 870 2075 21 168 18 769 -5 940 -63 471 -185 876 -387 1285 -527
1064 -1485 1834 -2634 2116 -326 79 -509 100 -906 104 -184 2 -351 1 -370 -1z
m-1420 -2734 l0 -680 76 75 c205 203 436 294 714 282 148 -6 251 -31 365 -86
228 -110 350 -277 402 -554 13 -69 16 -223 20 -999 l4 -918 -324 0 -325 0 -5
823 c-5 876 -7 925 -54 1030 -84 188 -351 253 -583 141 -132 -63 -219 -183
-262 -363 -21 -83 -22 -113 -25 -858 l-4 -773 -330 0 -329 0 0 1780 0 1780
330 0 330 0 0 -680z m2550 -2 l0 -681 73 69 c138 134 266 213 422 260 83 26
103 28 260 28 196 -1 270 -16 411 -84 235 -113 361 -302 405 -605 8 -54 13
-370 16 -972 l5 -893 -331 0 -331 0 0 795 c0 827 -5 943 -41 1042 -38 99 -142
181 -261 203 -226 43 -452 -66 -543 -262 -75 -163 -84 -290 -85 -1130 l0 -648
-325 0 -325 0 0 1780 0 1780 325 0 325 0 0 -682z"/>
</g>
</svg>
